<svg width="38" height="38" viewBox="0 0 38 38" fill="none" xmlns="http://www.w3.org/2000/svg">
<circle cx="19" cy="19" r="19" fill="#E64B2F"/>
<g clip-path="url(#clip0_11_33)">
<path d="M28.9 25.7533L28.6733 25.5533C28.0303 24.9804 27.4674 24.3234 27 23.6C26.4895 22.6017 26.1835 21.5115 26.1 20.3933V17.1C26.1044 15.3437 25.4673 13.6463 24.3085 12.3266C23.1496 11.007 21.5488 10.1559 19.8067 9.93332V9.07332C19.8067 8.83728 19.7129 8.6109 19.546 8.44399C19.3791 8.27709 19.1527 8.18332 18.9167 8.18332C18.6806 8.18332 18.4542 8.27709 18.2873 8.44399C18.1204 8.6109 18.0267 8.83728 18.0267 9.07332V9.94665C16.3002 10.1853 14.7186 11.0415 13.575 12.3567C12.4314 13.672 11.8031 15.3571 11.8067 17.1V20.3933C11.7232 21.5115 11.4172 22.6017 10.9067 23.6C10.4472 24.3215 9.89345 24.9785 9.25999 25.5533L9.03333 25.7533V27.6333H28.9V25.7533Z" fill="white"/>
<path d="M17.2134 28.3333C17.2718 28.7559 17.4812 29.1431 17.8029 29.4233C18.1246 29.7035 18.5368 29.8579 18.9634 29.8579C19.39 29.8579 19.8022 29.7035 20.1239 29.4233C20.4455 29.1431 20.6549 28.7559 20.7134 28.3333H17.2134Z" fill="#B15843"/>
</g>
<defs>
<clipPath id="clip0_11_33">
<rect width="24" height="24" fill="white" transform="translate(7 7)"/>
</clipPath>
</defs>
</svg>
