<svg width="47" height="28" viewBox="0 0 47 28" fill="none" xmlns="http://www.w3.org/2000/svg">
<path d="M12.3367 0.695987C13.4946 0.290715 14.8455 0.522298 15.8104 1.31355C17.1035 2.31708 17.5666 4.22765 16.8526 5.69435C16.3315 6.96807 14.9806 7.81721 13.6297 7.83651C11.8928 7.83651 10.1559 8.56986 8.97871 9.86287C7.91728 10.9822 7.35762 12.5454 7.35762 14.0893C7.31902 15.4595 6.46988 16.8104 5.19616 17.3508C4.05754 17.8525 2.64873 17.7753 1.6259 17.042C0.390785 16.2314 -0.26537 14.6104 0.101305 13.1629C0.506578 11.5419 2.06977 10.2874 3.76806 10.3646C6.99094 10.4032 9.92434 7.50843 9.84715 4.28555C9.76995 2.70305 10.87 1.19775 12.3367 0.695987Z" fill="#284D57"/>
<path d="M31.867 0.73462C33.2758 0.194256 34.9934 0.618827 35.939 1.79605C36.5952 2.5101 36.8846 3.49433 36.8654 4.43997C36.8654 7.68215 39.9145 10.4805 43.1374 10.3454C45.0287 10.3454 46.6498 12.0437 46.6884 13.9156C46.727 15.6332 45.4147 17.3122 43.7164 17.6017C42.1918 17.9298 40.4935 17.1385 39.7795 15.7297C39.104 14.649 39.4707 13.3367 39.0461 12.1787C38.4478 10.0559 36.5759 8.4155 34.4337 7.95233C32.1758 7.45057 29.6862 8.3962 28.2967 10.2296C27.5055 11.2717 26.9844 12.5647 27.0037 13.8963C27.0423 15.3244 26.1932 16.7332 24.8809 17.3315C23.8387 17.8719 22.6036 17.5052 21.5422 17.9298C19.1105 18.6631 17.2579 20.9983 17.1807 23.5457C17.1807 24.279 17.0649 25.0124 16.6789 25.6492C15.9456 26.9809 14.3245 27.7335 12.8192 27.4247C11.7191 27.2317 10.7735 26.4791 10.2331 25.4949C9.59628 24.3369 9.69277 22.8316 10.4647 21.7509C11.1016 20.786 12.2402 20.1684 13.3981 20.1491C15.135 20.1684 16.8719 19.4351 18.0491 18.1228C19.0912 16.9648 19.7281 15.4209 19.6895 13.8577C19.6895 12.3717 20.7123 10.9822 22.1211 10.4998C23.0668 10.1524 24.1089 10.4226 25.0545 10.0559C27.6213 9.34184 29.5125 6.85231 29.5318 4.18909C29.4739 2.74168 30.4389 1.25568 31.867 0.73462Z" fill="#E84931"/>
<path d="M31.8283 20.4193C33.0248 19.9368 34.4722 20.1684 35.4758 20.9789C36.6723 21.9246 37.1741 23.6808 36.5951 25.1089C36.0161 26.6528 34.3564 27.7142 32.6968 27.4633C31.3651 27.3089 30.1879 26.3633 29.7441 25.1089C29.0107 23.3334 29.9949 21.0754 31.8283 20.4193Z" fill="#284D57"/>
</svg>
