<svg width="77" height="19" viewBox="0 0 77 19" fill="none" xmlns="http://www.w3.org/2000/svg">
<path d="M5.35921 18.225C4.54921 18.225 3.84421 18.15 3.24421 18C2.65921 17.835 2.17171 17.61 1.78171 17.325C1.39171 17.025 1.10671 16.68 0.926709 16.29C0.746709 15.9 0.656709 15.4875 0.656709 15.0525C0.656709 14.6925 0.731709 14.3925 0.881709 14.1525C1.04671 13.8975 1.27171 13.71 1.55671 13.59C1.84171 13.455 2.16421 13.3875 2.52421 13.3875C2.55421 14.0775 2.68171 14.7 2.90671 15.255C3.13171 15.81 3.46171 16.2525 3.89671 16.5825C4.34671 16.8975 4.90921 17.055 5.58421 17.055C6.55921 17.055 7.31671 16.815 7.85671 16.335C8.41171 15.855 8.68921 15.1875 8.68921 14.3325C8.68921 13.7925 8.56921 13.335 8.32921 12.96C8.08921 12.57 7.71421 12.2175 7.20421 11.9025C6.69421 11.5725 5.99671 11.2275 5.11171 10.8675C4.40671 10.5825 3.78421 10.275 3.24421 9.945C2.71921 9.6 2.28421 9.2325 1.93921 8.8425C1.60921 8.4525 1.36171 8.0175 1.19671 7.5375C1.04671 7.0425 0.971709 6.5025 0.971709 5.9175C0.971709 5.0325 1.18921 4.2825 1.62421 3.6675C2.05921 3.0375 2.65921 2.5575 3.42421 2.2275C4.20421 1.8825 5.08171 1.71 6.05671 1.71C7.01671 1.71 7.81921 1.83 8.46421 2.07C9.10921 2.31 9.59671 2.625 9.92671 3.015C10.2567 3.39 10.4217 3.8025 10.4217 4.2525C10.4217 4.7475 10.2417 5.1375 9.88171 5.4225C9.52171 5.6925 9.01921 5.8275 8.37421 5.8275C8.37421 5.3775 8.29171 4.9275 8.12671 4.4775C7.97671 4.0275 7.72171 3.6525 7.36171 3.3525C7.00171 3.0525 6.50671 2.9025 5.87671 2.9025C5.35171 2.9025 4.89421 3 4.50421 3.195C4.11421 3.39 3.81421 3.6675 3.60421 4.0275C3.39421 4.3875 3.28921 4.8225 3.28921 5.3325C3.28921 5.8875 3.39421 6.3675 3.60421 6.7725C3.81421 7.1625 4.17421 7.5225 4.68421 7.8525C5.20921 8.1825 5.92171 8.535 6.82171 8.91C7.75171 9.285 8.53171 9.69 9.16171 10.125C9.79171 10.56 10.2642 11.055 10.5792 11.61C10.8942 12.165 11.0517 12.825 11.0517 13.59C11.0517 14.55 10.8192 15.375 10.3542 16.065C9.88921 16.755 9.22921 17.2875 8.37421 17.6625C7.51921 18.0375 6.51421 18.225 5.35921 18.225ZM16.7817 18.225C16.1217 18.225 15.5217 18.0975 14.9817 17.8425C14.4567 17.5725 14.0442 17.175 13.7442 16.65C13.4442 16.11 13.2942 15.4275 13.2942 14.6025C13.2942 13.4025 13.7142 12.5175 14.5542 11.9475C15.3942 11.3625 16.6767 11.04 18.4017 10.98L20.2467 10.9125V9.6075C20.2467 9.0675 20.2017 8.595 20.1117 8.19C20.0367 7.785 19.8642 7.47 19.5942 7.245C19.3242 7.005 18.9117 6.885 18.3567 6.885C17.8317 6.885 17.4267 6.99 17.1417 7.2C16.8717 7.41 16.6842 7.7025 16.5792 8.0775C16.4892 8.4375 16.4442 8.8575 16.4442 9.3375C15.7242 9.3375 15.1767 9.2325 14.8017 9.0225C14.4267 8.7975 14.2392 8.4225 14.2392 7.8975C14.2392 7.3575 14.4267 6.93 14.8017 6.615C15.1917 6.3 15.7017 6.0675 16.3317 5.9175C16.9767 5.7675 17.6817 5.6925 18.4467 5.6925C19.8717 5.6925 20.9367 5.985 21.6417 6.57C22.3617 7.155 22.7217 8.1525 22.7217 9.5625V15.3675C22.7217 15.7875 22.7667 16.1175 22.8567 16.3575C22.9467 16.5825 23.0967 16.7475 23.3067 16.8525C23.5167 16.9425 23.7867 16.9875 24.1167 16.9875H24.1842V18H20.8317L20.4492 16.1775H20.2467C19.9317 16.5825 19.6242 16.9425 19.3242 17.2575C19.0242 17.5575 18.6792 17.7975 18.2892 17.9775C17.8992 18.1425 17.3967 18.225 16.7817 18.225ZM17.5017 16.7625C18.0717 16.7625 18.5592 16.6425 18.9642 16.4025C19.3692 16.1475 19.6842 15.7875 19.9092 15.3225C20.1342 14.8575 20.2467 14.3175 20.2467 13.7025V11.925L18.9192 11.9925C18.1392 12.0225 17.5242 12.15 17.0742 12.375C16.6242 12.585 16.3017 12.885 16.1067 13.275C15.9267 13.665 15.8367 14.145 15.8367 14.715C15.8367 15.165 15.8967 15.5475 16.0167 15.8625C16.1367 16.1625 16.3167 16.3875 16.5567 16.5375C16.8117 16.6875 17.1267 16.7625 17.5017 16.7625ZM25.4046 18V16.9875H25.6971C26.0121 16.9875 26.3046 16.95 26.5746 16.875C26.8446 16.8 27.0621 16.65 27.2271 16.425C27.3921 16.2 27.4746 15.8625 27.4746 15.4125V3.3975C27.4746 2.9625 27.3846 2.64 27.2046 2.43C27.0396 2.22 26.8221 2.085 26.5521 2.025C26.2821 1.95 25.9971 1.9125 25.6971 1.9125H25.4046V0.899999H29.9496V15.4125C29.9496 15.8625 30.0321 16.2 30.1971 16.425C30.3621 16.65 30.5796 16.8 30.8496 16.875C31.1346 16.95 31.4271 16.9875 31.7271 16.9875H31.9971V18H25.4046ZM38.9106 18.225C37.2006 18.225 35.8731 17.685 34.9281 16.605C33.9981 15.525 33.5331 14.01 33.5331 12.06C33.5331 9.945 33.9831 8.355 34.8831 7.29C35.7831 6.225 37.0506 5.6925 38.6856 5.6925C40.1856 5.6925 41.3631 6.15 42.2181 7.065C43.0881 7.965 43.5231 9.3075 43.5231 11.0925V12.15H36.0756C36.1056 13.215 36.2406 14.0925 36.4806 14.7825C36.7356 15.4575 37.0956 15.9525 37.5606 16.2675C38.0406 16.5825 38.6256 16.74 39.3156 16.74C39.8406 16.74 40.3056 16.665 40.7106 16.515C41.1306 16.35 41.4906 16.1475 41.7906 15.9075C42.1056 15.6525 42.3531 15.3825 42.5331 15.0975C42.6681 15.1575 42.7806 15.2625 42.8706 15.4125C42.9606 15.5625 43.0056 15.7425 43.0056 15.9525C43.0056 16.2825 42.8556 16.6275 42.5556 16.9875C42.2706 17.3325 41.8206 17.625 41.2056 17.865C40.6056 18.105 39.8406 18.225 38.9106 18.225ZM40.9356 10.8675C40.9356 10.0875 40.8606 9.405 40.7106 8.82C40.5606 8.235 40.3206 7.785 39.9906 7.47C39.6606 7.14 39.2181 6.975 38.6631 6.975C38.1531 6.975 37.7106 7.125 37.3356 7.425C36.9756 7.725 36.6906 8.1675 36.4806 8.7525C36.2856 9.3225 36.1656 10.0275 36.1206 10.8675H40.9356ZM53.0838 18.225C51.4638 18.225 50.1138 17.88 49.0338 17.19C47.9688 16.5 47.1738 15.5325 46.6488 14.2875C46.1238 13.0425 45.8613 11.5875 45.8613 9.9225C45.8613 8.2575 46.1238 6.81 46.6488 5.58C47.1738 4.35 47.9763 3.3975 49.0563 2.7225C50.1363 2.0325 51.4863 1.6875 53.1063 1.6875C54.6513 1.6875 55.9563 2.0325 57.0213 2.7225C58.1013 3.3975 58.9188 4.3575 59.4738 5.6025C60.0288 6.8325 60.3063 8.28 60.3063 9.945C60.3063 11.61 60.0213 13.065 59.4513 14.31C58.8963 15.54 58.0788 16.5 56.9988 17.19C55.9338 17.88 54.6288 18.225 53.0838 18.225ZM53.0838 16.9425C53.8938 16.9425 54.5688 16.785 55.1088 16.47C55.6638 16.155 56.1138 15.6975 56.4588 15.0975C56.8038 14.4975 57.0513 13.7625 57.2013 12.8925C57.3663 12.0225 57.4488 11.04 57.4488 9.945C57.4488 8.85 57.3663 7.875 57.2013 7.02C57.0513 6.15 56.8038 5.415 56.4588 4.815C56.1288 4.2 55.6863 3.7425 55.1313 3.4425C54.5913 3.1275 53.9163 2.97 53.1063 2.97C52.3113 2.97 51.6288 3.1275 51.0588 3.4425C50.5038 3.7425 50.0538 4.2 49.7088 4.815C49.3638 5.415 49.1088 6.15 48.9438 7.02C48.7788 7.875 48.6963 8.85 48.6963 9.945C48.6963 11.04 48.7788 12.0225 48.9438 12.8925C49.1088 13.7625 49.3638 14.4975 49.7088 15.0975C50.0538 15.6975 50.5038 16.155 51.0588 16.47C51.6288 16.785 52.3038 16.9425 53.0838 16.9425ZM61.3273 18V16.9875H61.4623C61.8223 16.9875 62.1223 16.935 62.3623 16.83C62.6173 16.725 62.8498 16.56 63.0598 16.335C63.2848 16.095 63.5323 15.7875 63.8023 15.4125L67.6048 10.1025L63.8923 4.14C63.7123 3.855 63.5248 3.63 63.3298 3.465C63.1348 3.285 62.9173 3.1575 62.6773 3.0825C62.4523 2.9925 62.2123 2.9475 61.9573 2.9475H61.6648V1.935H68.1223V2.9475H68.0548C67.5448 2.9475 67.1998 3.015 67.0198 3.15C66.8548 3.27 66.7723 3.42 66.7723 3.6C66.7723 3.75 66.8098 3.9225 66.8848 4.1175C66.9598 4.3125 67.1023 4.5825 67.3123 4.9275L69.2923 8.0775L71.3848 4.9725C71.5498 4.7325 71.6848 4.4925 71.7898 4.2525C71.9098 4.0125 71.9698 3.795 71.9698 3.6C71.9698 3.33 71.8498 3.1575 71.6098 3.0825C71.3698 2.9925 71.0773 2.9475 70.7323 2.9475H70.6648V1.935H75.6823V2.9475H75.4798C75.1948 2.9475 74.9323 3 74.6923 3.105C74.4673 3.195 74.2423 3.36 74.0173 3.6C73.8073 3.825 73.5523 4.1475 73.2523 4.5675L69.9898 9.2025L74.1298 15.795C74.3548 16.08 74.5648 16.3125 74.7598 16.4925C74.9698 16.6725 75.1723 16.8 75.3673 16.875C75.5623 16.95 75.7498 16.9875 75.9298 16.9875H76.2223V18H69.7873V16.9875H69.8998C70.3498 16.9875 70.6873 16.9275 70.9123 16.8075C71.1373 16.6725 71.2498 16.485 71.2498 16.245C71.2498 16.08 71.2048 15.9075 71.1148 15.7275C71.0248 15.5325 70.8223 15.1875 70.5073 14.6925L68.3248 11.2275L65.8498 14.8275C65.7598 14.9475 65.6698 15.09 65.5798 15.255C65.4898 15.42 65.4148 15.5925 65.3548 15.7725C65.2948 15.9375 65.2648 16.1025 65.2648 16.2675C65.2648 16.5075 65.3773 16.6875 65.6023 16.8075C65.8273 16.9275 66.1873 16.9875 66.6823 16.9875H66.7498V18H61.3273Z" fill="#284D57"/>
</svg>
